# xmcd
#
# Track frame offsets:
#	150
#	15899
#	35190
#	54649
#	69563
#	85471
#	102117
#	128054
#	142518
#	167634
#	184937
#	205056
#	218986
#
# Disc length: 4307 seconds
#
# Revision: 1
# Processed by: cddbd v1.5.2PL0 Copyright (c) Steve Scherf et al.
# Submitted via: audiograbber 1.83.01
#
DISCID=b010d10d
DTITLE=Flyin' Saucers Gumbo Special - Crawfish Groove
DYEAR=1900
DGENRE=Blues
TTITLE0=Crawfish Groove
TTITLE1=Gumbo Special
TTITLE2=Made With Love
TTITLE3=Big Will
TTITLE4=Nude Blonde Lost In The Swamp
TTITLE5=New Orleans
TTITLE6=Funky Time
TTITLE7=One Week
TTITLE8=Til It Hurts
TTITLE9=Wanna Do That
TTITLE10=Drivin' Down Mississippi
TTITLE11=Let's Do It
TTITLE12=Tsunami Blues
EXTD=
EXTT0=
EXTT1=
EXTT2=
EXTT3=
EXTT4=
EXTT5=
EXTT6=
EXTT7=
EXTT8=
EXTT9=
EXTT10=
EXTT11=
EXTT12=
PLAYORDER=
